<?xml version="1.0" encoding="utf-8"?>
<svg version="1.1" id="Layer_2" xmlns="http://www.w3.org/2000/svg" xmlns:xlink="http://www.w3.org/1999/xlink" x="0px" y="0px"
	 viewBox="0 0 44 44" style="enable-background:new 0 0 44 44;" xml:space="preserve">
	<style type="text/css">
		.st0{fill:#85AA80;}
		.st1{fill:#FFFFFF;}
	</style>
	<g>
		<path class="st0" d="M22,1C10.4,1,1,10.4,1,22c0,11.6,9.4,21,21,21s21-9.4,21-21C43,10.4,33.6,1,22,1z"/>
	</g>
	<g>
		<path class="st1" d="M26.8,35.7v-2.9c0-1.5-0.5-2.7-1.6-3.4c0.7-0.1,1.3-0.2,1.8-0.3c0.6-0.1,1.1-0.3,1.7-0.5
			c0.6-0.2,1.2-0.5,1.7-0.8c0.5-0.3,1-0.7,1.4-1.2c0.4-0.5,0.8-1,1.1-1.6c0.3-0.6,0.5-1.3,0.7-2.2c0.2-0.8,0.3-1.8,0.3-2.8
			c0-2-0.6-3.6-1.9-5c0.6-1.5,0.5-3.2-0.2-5l-0.5-0.1c-0.3,0-0.9,0.1-1.8,0.4c-0.9,0.3-1.8,0.8-2.9,1.6c-1.5-0.4-3.1-0.6-4.7-0.6
			c-1.6,0-3.2,0.2-4.7,0.6c-0.7-0.5-1.3-0.8-1.9-1.1c-0.6-0.3-1.1-0.5-1.4-0.6c-0.4-0.1-0.7-0.2-1-0.2s-0.5,0-0.6,0
			c-0.1,0-0.2,0-0.2,0c-0.7,1.8-0.8,3.4-0.2,5c-1.3,1.4-1.9,3-1.9,5c0,1,0.1,1.9,0.3,2.8c0.2,0.8,0.4,1.6,0.7,2.2
			c0.3,0.6,0.7,1.1,1.1,1.6c0.4,0.5,0.9,0.9,1.4,1.2s1,0.6,1.7,0.8c0.6,0.2,1.2,0.4,1.7,0.5c0.6,0.1,1.2,0.2,1.8,0.3
			c-1,0.7-1.6,1.8-1.6,3.4v3C20.1,36.6,24.9,36.6,26.8,35.7z"/>
	</g>
</svg>
