<?xml version="1.0" encoding="utf-8"?>
<svg version="1.1" id="Layer_2" xmlns="http://www.w3.org/2000/svg" xmlns:xlink="http://www.w3.org/1999/xlink" x="0px" y="0px"
	 viewBox="0 0 44 44" style="enable-background:new 0 0 44 44;" xml:space="preserve">
	<style type="text/css">
		.st0{fill:#85AA80;}
	</style>
	<g>
		<path class="st0" d="M22,1C10.4,1,1,10.4,1,22c0,11.6,9.4,21,21,21s21-9.4,21-21C43,10.4,33.6,1,22,1z M17.3,30.6
			c-0.1,0-0.1,0-0.2,0c-1.3,0-2.6,0-4,0c-0.2,0-0.2,0-0.2-0.2c0-4.2,0-8.5,0-12.7c0-0.2,0-0.2,0.2-0.2c1.3,0,2.6,0,4,0
			c0.1,0,0.1,0,0.2,0C17.3,21.9,17.3,26.3,17.3,30.6z M17.6,13.8c-0.1,0.9-0.6,1.5-1.4,1.8c-0.3,0.1-0.7,0.2-1,0.2h0
			c-0.9,0-1.6-0.3-2.1-1c-0.8-1.3-0.2-2.9,1.2-3.4c0.8-0.2,1.7-0.2,2.4,0.3C17.4,12.2,17.7,13,17.6,13.8z M33,30.6
			c-1.4,0-2.9,0-4.3,0c0-0.1,0-0.1,0-0.2c0-2.2,0-4.4,0-6.7c0-0.6,0-1.2-0.2-1.7c-0.3-1-1.1-1.4-2.1-1.4c-1,0.1-1.8,0.8-2.1,1.7
			c-0.1,0.3-0.1,0.7-0.1,1.1c0,2.3,0,4.6,0,6.9c0,0.1,0,0.1,0,0.2c-1.5,0-2.9,0-4.3,0c0-4.3,0-8.7,0-13.1c0.1,0,0.1,0,0.2,0
			c1.3,0,2.6,0,4,0c0.2,0,0.2,0,0.2,0.2c0,0.5,0,1,0,1.4c0,0.1,0,0.1,0,0.2c0.3-0.3,0.5-0.6,0.7-0.9c0.7-0.7,1.5-1.1,2.4-1.2
			c0.9-0.1,1.8,0,2.7,0.3c1,0.4,1.8,1.1,2.3,2c0.6,1.1,0.8,2.3,0.8,3.5c0,2.5,0,4.9,0,7.4C33,30.5,33,30.6,33,30.6z"/>
	</g>
</svg>
