<svg xmlns="http://www.w3.org/2000/svg" xmlns:xlink="http://www.w3.org/1999/xlink" version="1.1">
	<defs>
		<!-- Github -->
		<symbol id="github" viewBox="0 0 44 44">
			<title>
				Github
			</title>
			<path style="fill: currentColor" d="M22,1C10.4,1,1,10.4,1,22c0,11.6,9.4,21,21,21s21-9.4,21-21C43,10.4,33.6,1,22,1z" />
			<path style="fill: #fff;" d="M26.8,35.7v-2.9c0-1.5-0.5-2.7-1.6-3.4c0.7-0.1,1.3-0.2,1.8-0.3c0.6-0.1,1.1-0.3,1.7-0.5
			c0.6-0.2,1.2-0.5,1.7-0.8c0.5-0.3,1-0.7,1.4-1.2c0.4-0.5,0.8-1,1.1-1.6c0.3-0.6,0.5-1.3,0.7-2.2c0.2-0.8,0.3-1.8,0.3-2.8
			c0-2-0.6-3.6-1.9-5c0.6-1.5,0.5-3.2-0.2-5l-0.5-0.1c-0.3,0-0.9,0.1-1.8,0.4c-0.9,0.3-1.8,0.8-2.9,1.6c-1.5-0.4-3.1-0.6-4.7-0.6
			c-1.6,0-3.2,0.2-4.7,0.6c-0.7-0.5-1.3-0.8-1.9-1.1c-0.6-0.3-1.1-0.5-1.4-0.6c-0.4-0.1-0.7-0.2-1-0.2s-0.5,0-0.6,0
			c-0.1,0-0.2,0-0.2,0c-0.7,1.8-0.8,3.4-0.2,5c-1.3,1.4-1.9,3-1.9,5c0,1,0.1,1.9,0.3,2.8c0.2,0.8,0.4,1.6,0.7,2.2
			c0.3,0.6,0.7,1.1,1.1,1.6c0.4,0.5,0.9,0.9,1.4,1.2s1,0.6,1.7,0.8c0.6,0.2,1.2,0.4,1.7,0.5c0.6,0.1,1.2,0.2,1.8,0.3
			c-1,0.7-1.6,1.8-1.6,3.4v3C20.1,36.6,24.9,36.6,26.8,35.7z"/>
		</symbol>

		<!-- LinkedIn -->
		<symbol id="linkedin" viewBox="0 0 44 44">
			<title>
				LinkedIn
			</title>
			<path style="fill: currentColor" d="M22,1C10.4,1,1,10.4,1,22c0,11.6,9.4,21,21,21s21-9.4,21-21C43,10.4,33.6,1,22,1z M17.3,30.6
				c-0.1,0-0.1,0-0.2,0c-1.3,0-2.6,0-4,0c-0.2,0-0.2,0-0.2-0.2c0-4.2,0-8.5,0-12.7c0-0.2,0-0.2,0.2-0.2c1.3,0,2.6,0,4,0
				c0.1,0,0.1,0,0.2,0C17.3,21.9,17.3,26.3,17.3,30.6z M17.6,13.8c-0.1,0.9-0.6,1.5-1.4,1.8c-0.3,0.1-0.7,0.2-1,0.2h0
				c-0.9,0-1.6-0.3-2.1-1c-0.8-1.3-0.2-2.9,1.2-3.4c0.8-0.2,1.7-0.2,2.4,0.3C17.4,12.2,17.7,13,17.6,13.8z M33,30.6
				c-1.4,0-2.9,0-4.3,0c0-0.1,0-0.1,0-0.2c0-2.2,0-4.4,0-6.7c0-0.6,0-1.2-0.2-1.7c-0.3-1-1.1-1.4-2.1-1.4c-1,0.1-1.8,0.8-2.1,1.7
				c-0.1,0.3-0.1,0.7-0.1,1.1c0,2.3,0,4.6,0,6.9c0,0.1,0,0.1,0,0.2c-1.5,0-2.9,0-4.3,0c0-4.3,0-8.7,0-13.1c0.1,0,0.1,0,0.2,0
				c1.3,0,2.6,0,4,0c0.2,0,0.2,0,0.2,0.2c0,0.5,0,1,0,1.4c0,0.1,0,0.1,0,0.2c0.3-0.3,0.5-0.6,0.7-0.9c0.7-0.7,1.5-1.1,2.4-1.2
				c0.9-0.1,1.8,0,2.7,0.3c1,0.4,1.8,1.1,2.3,2c0.6,1.1,0.8,2.3,0.8,3.5c0,2.5,0,4.9,0,7.4C33,30.5,33,30.6,33,30.6z"/>
		</symbol>

		<!-- Stack Overflow -->
		<symbol id="stackoverflow" viewBox="0 0 44 44">
			<title>
				Stack Overflow
			</title>
			<path style="fill: currentColor" d="M-77,1c-11.6,0-21,9.4-21,21c0,11.6,9.4,21,21,21s21-9.4,21-21C-56,10.4-65.4,1-77,1z M-78.5,8.7l11.5,7.9
				l-1.3,2l-11.5-7.9L-78.5,8.7z M-82,14.7l13.2,4.7l-0.8,2.2L-82.8,17L-82,14.7z M-83.7,20.4l13.8,2.4l-0.4,2.3l-13.8-2.4L-83.7,20.4
				z M-84.4,26h14v2.4h-14V26z M-66,32.4h-20h-1h-2v-9h2.1v7h18.8v-7h2.1V32.4z"/>
			<circle style="fill: currentColor" cx="22" cy="22" r="21"/>
			<polygon style="fill: #fff;" points="30.9,23.4 30.9,30.4 12.1,30.4 12.1,23.4 10,23.4 10,32.4 12,32.4 13,32.4 33,32.4 33,23.4 	"/>
			<rect style="fill: #fff;" x="14.6" y="26" width="14" height="2.4"/>
			<rect style="fill: #fff;" x="15" y="21.6" transform="matrix(0.9852 0.1715 -0.1715 0.9852 4.2347 -3.4276)" width="14" height="2.4"/>
			<rect style="fill: #fff;" x="16.2" y="17" transform="matrix(0.9424 0.3345 -0.3345 0.9424 7.4223 -6.6973)" width="14" height="2.4"/>
			<rect style="fill: #fff;" x="18.6" y="12.4" transform="matrix(0.8247 0.5655 -0.5655 0.8247 12.1859 -12.1164)" width="14" height="2.4"/>
		</symbol>

		<!-- Twitter -->
		<symbol id="twitter" viewBox="0 0 44 44">
			<title>
				Twitter
			</title>
			<path style="fill: currentColor" d="M22,1C10.4,1,1,10.4,1,22c0,11.6,9.4,21,21,21s21-9.4,21-21C43,10.4,33.6,1,22,1z M34,16.4
				c-0.3,0.3-0.7,0.7-1.1,1c-0.2,0.2-0.2,0.3-0.2,0.6c-0.1,1.5-0.3,3-0.7,4.5c-1.3,4.6-3.2,7.4-7.7,9.2c-3.9,1.6-8.5,1.7-11.9,0.2
				c-0.4-0.2-1.5-1-1.7-1.2c0.7,0.1,2.5,0.1,5.1-0.9c0.6-0.3,1.4-0.8,1.7-1.2c-2.2-0.1-4.1-1.3-4.5-3.6c0.6,0,1.2,0,1.7,0
				c-2.1-0.8-3.6-2.2-3.6-5.1c0.7,0.2,1.3,0.2,2,0.3c-0.4-0.5-0.8-0.8-1.2-1.2c-0.4-0.5-0.7-1.3-0.8-2.2c-0.2-1.1,0.2-2.2,0.8-3.2
				c2.8,3.1,6.2,4.9,10.4,5.2c0-0.3,0-0.7,0-1c0-1.1,0.2-2.1,0.8-3c1-1.6,3.8-3.2,6.3-1.9c0.3,0.2,0.6,0.3,0.9,0.6
				c0.7,0.5,1.4,0.6,2.2,0.3c0.6-0.2,1.1-0.5,1.8-0.7c-0.1,0.5-0.4,1-0.7,1.4c-0.3,0.4-0.6,0.8-1,1.2c0.8-0.2,1.5-0.4,2.3-0.6
				c0,0,0,0,0.1,0.1C34.7,15.6,34.3,16,34,16.4z"/>
		</symbol>

		<!-- Menu close -->
		<symbol id="close" viewBox="0 0 26 14">
			<title>
				Close
			</title>
			<polygon style="fill: currentColor" points="25.4,1.9 24.6,0.1 13,5.9 1.4,0.1 0.6,1.9 10.8,7 0.6,12.1 1.4,13.9 13,8.1 24.6,13.9 25.4,12.1 
				15.2,7 "/>
		</symbol>
		
		<!-- Menu -->
		<symbol id="menu" viewBox="0 0 26 14">
			<title>
				Menu
			</title>
			<rect style="fill: currentColor" width="26" height="2"/>
			<rect y="6" style="fill: currentColor" width="26" height="2"/>
			<rect y="12" style="fill: currentColor" width="26" height="2"/>
		</symbol>

		<!-- End mark -->
		<symbol id="end_mark" viewBox="0 0 53 37">
			<title>
				End
			</title>
			<path style="fill: currentColor" d="M0.8,19.5v-2.4l13.8-7v2.5L3.7,18.3l10.9,5.7v2.5L0.8,19.5z"/>
			<path style="fill: currentColor" d="M52.2,19.5l-13.8,7.1v-2.5l10.9-5.7l-10.9-5.7v-2.5l13.8,7V19.5z"/>
			<path style="fill: currentColor" d="M32,0h2.4L22.9,36.9h-2.5L32,0z"/>
		</symbol>
	</defs>
</svg>