<?xml version="1.0" encoding="utf-8"?>
<svg version="1.1" id="Layer_2" xmlns="http://www.w3.org/2000/svg" xmlns:xlink="http://www.w3.org/1999/xlink" x="0px" y="0px"
	 viewBox="0 0 44 44" style="enable-background:new 0 0 44 44;" xml:space="preserve">
	<style type="text/css">
		.st0{fill:#85AA80;}
		.st1{fill:#FFFFFF;}
	</style>
	<g>
		<path class="st0" d="M-77,1c-11.6,0-21,9.4-21,21c0,11.6,9.4,21,21,21s21-9.4,21-21C-56,10.4-65.4,1-77,1z M-78.5,8.7l11.5,7.9
			l-1.3,2l-11.5-7.9L-78.5,8.7z M-82,14.7l13.2,4.7l-0.8,2.2L-82.8,17L-82,14.7z M-83.7,20.4l13.8,2.4l-0.4,2.3l-13.8-2.4L-83.7,20.4
			z M-84.4,26h14v2.4h-14V26z M-66,32.4h-20h-1h-2v-9h2.1v7h18.8v-7h2.1V32.4z"/>
	</g>
	<circle class="st0" cx="22" cy="22" r="21"/>
	<g>
		<polygon class="st1" points="30.9,23.4 30.9,30.4 12.1,30.4 12.1,23.4 10,23.4 10,32.4 12,32.4 13,32.4 33,32.4 33,23.4 	"/>
		<rect x="14.6" y="26" class="st1" width="14" height="2.4"/>
		<rect x="15" y="21.6" transform="matrix(0.9852 0.1715 -0.1715 0.9852 4.2347 -3.4276)" class="st1" width="14" height="2.4"/>
		<rect x="16.2" y="17" transform="matrix(0.9424 0.3345 -0.3345 0.9424 7.4223 -6.6973)" class="st1" width="14" height="2.4"/>
		<rect x="18.6" y="12.4" transform="matrix(0.8247 0.5655 -0.5655 0.8247 12.1859 -12.1164)" class="st1" width="14" height="2.4"/>
	</g>
</svg>
