<?xml version="1.0" encoding="utf-8"?>
<svg version="1.1" xmlns="http://www.w3.org/2000/svg" xmlns:xlink="http://www.w3.org/1999/xlink" x="0px" y="0px"
	 viewBox="0 0 44 44" style="enable-background:new 0 0 44 44;" xml:space="preserve">
	<style type="text/css">
		.st0{fill:#85AA80;}
	</style>
	<g>
		<g>
			<path class="st0" d="M22,1C10.4,1,1,10.4,1,22c0,11.6,9.4,21,21,21s21-9.4,21-21C43,10.4,33.6,1,22,1z M34,16.4
				c-0.3,0.3-0.7,0.7-1.1,1c-0.2,0.2-0.2,0.3-0.2,0.6c-0.1,1.5-0.3,3-0.7,4.5c-1.3,4.6-3.2,7.4-7.7,9.2c-3.9,1.6-8.5,1.7-11.9,0.2
				c-0.4-0.2-1.5-1-1.7-1.2c0.7,0.1,2.5,0.1,5.1-0.9c0.6-0.3,1.4-0.8,1.7-1.2c-2.2-0.1-4.1-1.3-4.5-3.6c0.6,0,1.2,0,1.7,0
				c-2.1-0.8-3.6-2.2-3.6-5.1c0.7,0.2,1.3,0.2,2,0.3c-0.4-0.5-0.8-0.8-1.2-1.2c-0.4-0.5-0.7-1.3-0.8-2.2c-0.2-1.1,0.2-2.2,0.8-3.2
				c2.8,3.1,6.2,4.9,10.4,5.2c0-0.3,0-0.7,0-1c0-1.1,0.2-2.1,0.8-3c1-1.6,3.8-3.2,6.3-1.9c0.3,0.2,0.6,0.3,0.9,0.6
				c0.7,0.5,1.4,0.6,2.2,0.3c0.6-0.2,1.1-0.5,1.8-0.7c-0.1,0.5-0.4,1-0.7,1.4c-0.3,0.4-0.6,0.8-1,1.2c0.8-0.2,1.5-0.4,2.3-0.6
				c0,0,0,0,0.1,0.1C34.7,15.6,34.3,16,34,16.4z"/>
		</g>
	</g>
</svg>
